<svg xmlns="http://www.w3.org/2000/svg" xmlns:xlink="http://www.w3.org/1999/xlink" id="Layer_1" x="0px" y="0px" viewBox="0 0 129.7 48" style="enable-background:new 0 0 129.7 48;" xml:space="preserve"><style type="text/css">	.st0{fill:#4F63F9;}</style><g>	<g>		<path class="st0" d="M57,42.7v1h-1.6V48h-1.1v-4.3h-1.6v-1C52.8,42.7,57,42.7,57,42.7z"></path>		<path class="st0" d="M61.1,42.7h1.6v5.2h-1v-3.5c0-0.1,0-0.2,0-0.5c0-0.2,0-0.4,0-0.4l-1,4.3h-1.1l-1.1-4.3c0,0.1,0,0.2,0,0.4    c0,0.2,0,0.4,0,0.5v3.5h-1v-5.2h1.6l1,4.1L61.1,42.7z"></path>	</g>	<g>		<path class="st0" d="M27.4,0C12.2,0,0,12.6,0,28c0,7.2,2.6,14,7.6,19.3l2.6-2.8c-4-4.4-6.1-10.2-6.1-16.3c0-13.2,10.4-24,23.2-24    s23.2,10.8,23.2,24c0,6-2.2,11.8-6,16.2l2.8,2.9c4.9-5.3,7.6-12.1,7.6-19.3C54.7,12.6,42.5,0,27.4,0z"></path>		<path class="st0" d="M27.2,5.5c-12,0-21.8,10.2-21.8,22.8c0,5.8,2,11.2,5.8,15.4l2-2c0.7-0.7,0.8-2,0.2-2.9    c-0.1-0.2-3.7-5.8-3.7-10.7v-0.7c0.4-9.8,8-17.4,17.6-17.4c9.5,0,17.3,7.6,17.6,17.3V28c-0.2,5-3.6,10.4-3.7,10.6    c-0.6,0.8-0.5,2.3,0.2,3l1.9,1.9c3.6-4.2,5.6-9.6,5.6-15.2C49.1,15.7,39.2,5.5,27.2,5.5z"></path>		<g>			<path class="st0" d="M18.2,25.8c-1.4,0-2.6-1.2-2.6-2.6s1.2-2.6,2.6-2.6c1.4,0,2.6,1.2,2.6,2.6S19.7,25.8,18.2,25.8z M24.2,33     c-1.4,0-2.6-1.2-2.6-2.6s1.2-2.6,2.6-2.6s2.6,1.2,2.6,2.6C26.9,31.8,25.7,33,24.2,33z M36.5,23.2c1.4,0,2.6,1.2,2.6,2.6     s-1.2,2.6-2.6,2.6c-1.4,0-2.6-1.2-2.6-2.6C33.8,24.2,35,23.2,36.5,23.2z M30.2,15.2c1.4,0,2.6,1.2,2.6,2.6s-1.2,2.6-2.6,2.6     s-2.6-1.2-2.6-2.6S28.8,15.2,30.2,15.2z"></path>			<circle class="st0" cx="18.2" cy="23.2" r="2.6"></circle>			<path class="st0" d="M20.2,26.8c-0.1,0-0.1,0-0.2,0c-1.1,0.5-2.4,0.5-3.5,0c-0.1,0-0.1,0-0.2,0c-0.1,0-0.1,0.1-0.1,0.1V38     c1.2,1.2,2.5,2.3,4.1,3.1V26.8L20.2,26.8z"></path>			<circle class="st0" cx="24.2" cy="30.4" r="2.6"></circle>			<path class="st0" d="M26.2,34c-0.1,0-0.1,0-0.2,0c-1.1,0.5-2.4,0.5-3.5,0c-0.1,0-0.1,0-0.2,0s-0.1,0.1-0.1,0.1V42     c1.3,0.5,2.6,0.7,4.1,0.8L26.2,34C26.3,34.1,26.2,34,26.2,34z"></path>			<circle class="st0" cx="36.5" cy="25.8" r="2.6"></circle>			<path class="st0" d="M38.4,29.4c-0.1,0-0.1,0-0.2,0c-1.1,0.5-2.4,0.5-3.5,0c-0.1,0-0.1,0-0.2,0c0.1,0,0.1,0,0.1,0.1v11.6     c1.6-0.8,2.9-1.9,4.1-3.1v-8.5C38.5,29.4,38.5,29.4,38.4,29.4z"></path>			<circle class="st0" cx="30.2" cy="18" r="2.6"></circle>			<path class="st0" d="M32.2,21.5c-0.1,0-0.1,0-0.2,0c-1.1,0.5-2.4,0.5-3.5,0c-0.1,0-0.1,0-0.2,0l-0.1,0.1v21.2     c1.4-0.1,2.8-0.4,4.1-0.8V21.5C32.3,21.6,32.3,21.6,32.2,21.5z"></path>		</g>		<g>			<path class="st0" d="M75.1,16c-2.6,0-4.6,1.9-4.6,4.6c0,2.5,1.9,4.6,4.6,4.6c2.6,0,4.6-1.9,4.6-4.6S77.8,16,75.1,16z M75.1,22.7     c-1.2,0-2-1-2-2.3c0-1.3,0.8-2.3,2-2.3c1.2,0,2,0.8,2,2.3C77,21.7,76.3,22.7,75.1,22.7z"></path>			<polygon class="st0" points="86,21.8 84,16.1 81.4,16.1 84.6,24.8 87.5,24.8 90.7,16.1 88.1,16.1    "></polygon>			<polygon class="st0" points="95.6,21.6 98.8,21.6 98.8,19.3 95.6,19.3 95.6,18.4 99.1,18.4 99.1,16.1 93.1,16.1 93.1,24.8      99.1,24.8 99.1,22.6 95.6,22.6    "></polygon>			<path class="st0" d="M109,19.1c0-1.9-1.3-3.1-3.7-3.1c-1,0-2,0.1-2.6,0.2h-0.1v8.6h2.5v-2.6h0.2l1.8,2.6h3l-2.3-3.2     C108.5,21,109,20,109,19.1z M106.4,19.1c0,0.4-0.1,1-1.3,1h-0.4v-1.9c0.1,0,0.2,0,0.4,0C106,18.1,106.4,18.5,106.4,19.1z"></path>			<polygon class="st0" points="114.7,21.6 117.8,21.6 117.8,19.3 114.7,19.3 114.7,18.4 118.2,18.4 118.2,16.1 112.2,16.1      112.2,24.8 118.2,24.8 118.2,22.6 114.7,22.6    "></polygon>			<path class="st0" d="M124.4,16c-1.1,0-2.2,0.1-2.9,0.2h-0.1v8.5h0.1c0.8,0.2,2.3,0.2,2.8,0.2c3.1,0,4.9-1.7,4.9-4.6     C129.2,17.6,127.4,16,124.4,16z M124.6,22.7c-0.2,0-0.5,0-0.7,0v-4.4c0.2,0,0.5,0,0.6,0c0.6,0,2.2,0.2,2.2,2.2     C126.7,21.8,126,22.7,124.6,22.7z"></path>			<path class="st0" d="M65.3,22.7c-1.2,0-2-0.8-2-2.3c0-1.3,0.7-2.3,1.9-2.3c0.8,0,1.6,0.2,2.2,0.8l0.4,0.4v-2.9h-0.1     c-0.6-0.4-1.4-0.6-2.4-0.6c-2.6,0-4.4,1.8-4.4,4.6c0,2.6,1.8,4.6,4.4,4.6c1.1,0,1.8-0.2,2.5-0.6h0.1v-2.6L67.4,22     C66.8,22.3,66.4,22.7,65.3,22.7z"></path>		</g>		<g>			<path class="st0" d="M66.4,33.4L66.4,33.4c-0.6,0.4-1.1,0.6-1.8,0.6c-1,0-1.6-0.7-1.6-1.7c0-1.1,0.6-1.7,1.4-1.7     c0.6,0,1.2,0.2,1.6,0.6h0.1l0.1-0.1v-1.6c0,0,0-0.1-0.1-0.1C65.6,29.2,65,29,64.3,29c-2,0-3.4,1.3-3.4,3.4s1.3,3.4,3.4,3.4     c0.7,0,1.3-0.1,1.9-0.5v-0.1L66.4,33.4C66.5,33.5,66.4,33.4,66.4,33.4z"></path>			<path class="st0" d="M72.7,29.2C72.7,29,72.7,29,72.7,29.2l-2-0.1c0,0-0.1,0-0.1,0.1l-2.4,6.2v0.1h0.1H70c0,0,0.1,0,0.1-0.1     l0.4-1.1h2.4l0.4,1.1l0.1,0.1H75l0,0c0.1,0,0.1,0,0.1-0.1c0,0,0,0,0-0.1L72.7,29.2z M72.2,32.9H71l0.6-1.8L72.2,32.9z"></path>			<path class="st0" d="M81.2,34H79v-4.8c0-0.1,0-0.1-0.1-0.1h-1.6c-0.1,0-0.1,0-0.1,0.1v6.2c0,0.1,0,0.1,0.1,0.1h4     c0.1,0,0.1,0,0.1-0.1v-1.3C81.4,34,81.2,34,81.2,34z"></path>			<path class="st0" d="M85.2,29h-1.6c-0.1,0-0.1,0-0.1,0.1v6.2c0,0.1,0,0.1,0.1,0.1h1.6c0.1,0,0.1,0,0.1-0.1L85.2,29     C85.3,29.2,85.3,29,85.2,29z"></path>			<path class="st0" d="M91.9,29h-3.8C88,29,88,29,88,29.2v6.2c0,0.1,0,0.1,0.1,0.1h1.6c0.1,0,0.1,0,0.1-0.1v-2h1.9     c0.1,0,0.1,0,0.1-0.1v-1.3c0-0.1,0-0.1-0.1-0.1h-1.9v-1.1h2.2c0.1,0,0.1,0,0.1-0.1v-1.3C92,29.2,91.9,29,91.9,29z"></path>			<path class="st0" d="M97.3,28.9c-1.9,0-3.4,1.4-3.4,3.4s1.4,3.4,3.4,3.4c1.9,0,3.4-1.4,3.4-3.4C100.8,30.4,99.2,28.9,97.3,28.9z      M97.3,34c-0.8,0-1.6-0.7-1.6-1.7c0-1,0.6-1.7,1.6-1.7c1,0,1.6,0.7,1.6,1.7C98.9,33.4,98.3,34,97.3,34z"></path>			<path class="st0" d="M106.9,33.1c0.7-0.4,1.1-1.1,1.1-1.9c0-1.4-1-2.3-2.8-2.3c-0.7,0-1.6,0-2,0.1c0,0-0.1,0-0.1,0.1v6.2     c0,0.1,0,0.1,0.1,0.1h1.6c0.1,0,0.1,0,0.1-0.1v-1.9h0.2l1.3,1.9c0,0,0,0,0.1,0h1.8c0,0,0.1,0,0.1-0.1v-0.1L106.9,33.1z      M106.1,31.3c0,0.4-0.1,0.7-1,0.7h-0.2v-1.4c0.1,0,0.2,0,0.4,0C105.8,30.6,106.1,30.8,106.1,31.3z"></path>			<path class="st0" d="M116.2,29h-1.6c-0.1,0-0.1,0-0.1,0.1v3.5l-2.3-3.5c0,0,0,0-0.1,0h-1.6c-0.1,0-0.1,0-0.1,0.1v6.2     c0,0.1,0,0.1,0.1,0.1h1.6c0.1,0,0.1,0,0.1-0.1v-3.4l2.4,3.5c0,0,0,0,0.1,0h1.4c0.1,0,0.1,0,0.1-0.1v-6.2     C116.3,29.2,116.3,29,116.2,29z"></path>			<path class="st0" d="M120.6,29H119c-0.1,0-0.1,0-0.1,0.1v6.2c0,0.1,0,0.1,0.1,0.1h1.6c0.1,0,0.1,0,0.1-0.1L120.6,29     C120.7,29.2,120.7,29,120.6,29z"></path>			<path class="st0" d="M129.7,35.4l-2.4-6.2l-0.1-0.1h-1.9c0,0-0.1,0-0.1,0.1l-2.4,6.2v0.1c0,0,0,0,0.1,0h1.7c0,0,0.1,0,0.1-0.1     l0.4-1.1h2.4l0.4,1.1l0.1,0.1L129.7,35.4L129.7,35.4C129.7,35.5,129.7,35.5,129.7,35.4L129.7,35.4z M126.8,32.9h-1.2l0.6-1.8     L126.8,32.9z"></path>		</g>	</g></g></svg>