<svg width="160" height="44" viewBox="0 0 160 44" fill="none" xmlns="http://www.w3.org/2000/svg">
<g clip-path="url(#clip0_12434_163301)">
<mask id="mask0_12434_163301" style="mask-type:luminance" maskUnits="userSpaceOnUse" x="0" y="0" width="160" height="44">
<path d="M160 0.699707H0V43.2997H160V0.699707Z" fill="white"/>
</mask>
<g mask="url(#mask0_12434_163301)">
<path fill-rule="evenodd" clip-rule="evenodd" d="M46 40.0996V40.6996H47V43.2996H47.7V40.6996H48.6V40.0996H46Z" fill="#5363F0"/>
<path fill-rule="evenodd" clip-rule="evenodd" d="M51 40.0996H52V43.1996H51.4V41.0996C51.4 40.9996 51.4 40.9996 51.4 40.7996C51.4 40.6996 51.4 40.5996 51.4 40.4996L50.8 43.0996H50.2L49.6 40.4996C49.6 40.5996 49.6 40.5996 49.6 40.7996C49.6 40.8996 49.6 40.9996 49.6 41.0996V43.1996H49V40.0996H50L50.6 42.5996L51 40.0996Z" fill="#5363F0"/>
<path fill-rule="evenodd" clip-rule="evenodd" d="M24.7 0.699707C11.1 0.699707 0 11.9998 0 25.8998C0 32.3998 2.4 38.5997 6.8 43.2997L9.2 40.7997C5.6 36.7997 3.7 31.5998 3.7 26.0998C3.7 14.1998 13.1 4.39971 24.6 4.39971C36.1 4.39971 45.5 14.0998 45.5 26.0998C45.5 31.4998 43.6 36.6998 40 40.6998L42.5 43.2997C46.9 38.5997 49.3 32.3998 49.3 25.8998C49.3 11.9998 38.2 0.699707 24.7 0.699707Z" fill="#5363F0"/>
<path fill-rule="evenodd" clip-rule="evenodd" d="M24.5999 5.69971C13.6999 5.69971 4.8999 14.8998 4.8999 26.1998C4.8999 31.2998 6.6999 36.2997 10.0999 39.9998L11.8999 38.1998C12.4999 37.4998 12.6999 36.2998 12.0999 35.5998C11.9999 35.3998 8.6999 30.3998 8.6999 25.9998V25.2998C9.0999 16.4998 16.0999 9.69971 24.5999 9.69971C33.1999 9.69971 40.1999 16.5998 40.4999 25.2998V25.9998C40.2999 30.4998 37.1999 35.3998 37.0999 35.5998C36.5999 36.3998 36.6999 37.6998 37.2999 38.3998L38.9999 40.0998C42.2999 36.2998 44.0999 31.3998 44.0999 26.2998C44.2999 14.8998 35.3999 5.69971 24.5999 5.69971Z" fill="#5363F0"/>
<path fill-rule="evenodd" clip-rule="evenodd" d="M27.3 14.5C28.6 14.5 29.7 15.6 29.7 16.9C29.7 18.2 28.6 19.3 27.3 19.3C26 19.3 24.9 18.2 24.9 16.9C24.9 15.5 26 14.5 27.3 14.5ZM32.9 21.5C34.2 21.5 35.3 22.6 35.3 23.9C35.3 25.2 34.2 26.3 32.9 26.3C31.6 26.3 30.5 25.2 30.5 23.9C30.5 22.6 31.6 21.5 32.9 21.5ZM21.8 30.4C20.5 30.4 19.4 29.3 19.4 28C19.4 26.7 20.5 25.6 21.8 25.6C23.1 25.6 24.2 26.7 24.2 28C24.2 29.4 23.2 30.4 21.8 30.4ZM16.4 23.9C15.1 23.9 14 22.8 14 21.5C14 20.2 15.1 19.1 16.4 19.1C17.7 19.1 18.8 20.2 18.8 21.5C18.8 22.8 17.7 23.9 16.4 23.9Z" fill="#5363F0"/>
<path fill-rule="evenodd" clip-rule="evenodd" d="M16.4 19.0996C15.1 19.0996 14 20.1996 14 21.4996C14 22.7996 15.1 23.8996 16.4 23.8996C17.7 23.8996 18.8 22.7996 18.8 21.4996C18.8 20.1996 17.7 19.0996 16.4 19.0996Z" fill="#5363F0"/>
<path fill-rule="evenodd" clip-rule="evenodd" d="M18.1 24.7998C18 24.7998 18 24.7998 17.9 24.7998C16.9 25.2998 15.8 25.2998 14.8 24.7998C14.7 24.7998 14.7 24.7998 14.6 24.7998C14.5 24.7998 14.5 24.8998 14.5 24.9998V35.0998C15.5 36.1999 16.8 37.1998 18.1 37.8998V24.8998C18.2 24.8998 18.2 24.7998 18.1 24.7998Z" fill="#5363F0"/>
<path fill-rule="evenodd" clip-rule="evenodd" d="M21.7999 25.5996C20.4999 25.5996 19.3999 26.6996 19.3999 27.9996C19.3999 29.2996 20.4999 30.3996 21.7999 30.3996C23.0999 30.3996 24.1999 29.2996 24.1999 27.9996C24.1999 26.6996 23.1999 25.5996 21.7999 25.5996Z" fill="#5363F0"/>
<path fill-rule="evenodd" clip-rule="evenodd" d="M23.6 31.2998C23.5 31.2998 23.5 31.2998 23.4 31.2998C22.4 31.7998 21.3 31.7998 20.3 31.2998C20.2 31.2998 20.2 31.2998 20.1 31.2998C20 31.2998 20 31.3998 20 31.4998V38.6998C21.1 39.0998 22.4 39.3998 23.6 39.4998V31.5998C23.7 31.3998 23.6 31.2998 23.6 31.2998Z" fill="#5363F0"/>
<path fill-rule="evenodd" clip-rule="evenodd" d="M32.9 26.3C34.2 26.3 35.3 25.2 35.3 23.9C35.3 22.6 34.2 21.5 32.9 21.5C31.6 21.5 30.5 22.6 30.5 23.9C30.5 25.2 31.6 26.3 32.9 26.3Z" fill="#5363F0"/>
<path fill-rule="evenodd" clip-rule="evenodd" d="M34.7001 27.0996C34.6001 27.0996 34.6001 27.0996 34.5001 27.0996C33.5001 27.5996 32.4001 27.5996 31.4001 27.0996C31.3001 27.0996 31.3001 27.0996 31.2001 27.0996C31.1001 27.0996 31.1001 27.1996 31.1001 27.2996V37.7996C32.5001 37.0996 33.7001 36.0996 34.7001 34.9996V27.2996C34.8001 27.1996 34.7001 27.1996 34.7001 27.0996Z" fill="#5363F0"/>
<path fill-rule="evenodd" clip-rule="evenodd" d="M27.2999 19.3C28.5999 19.3 29.6999 18.2 29.6999 16.9C29.6999 15.6 28.5999 14.5 27.2999 14.5C25.9999 14.5 24.8999 15.6 24.8999 16.9C24.8999 18.2 25.9999 19.3 27.2999 19.3Z" fill="#5363F0"/>
<path fill-rule="evenodd" clip-rule="evenodd" d="M28.9999 20.0996C28.8999 20.0996 28.8999 20.0996 28.7999 20.0996C27.7999 20.5996 26.6999 20.5996 25.6999 20.0996C25.5999 20.0996 25.5999 20.0996 25.4999 20.0996C25.3999 20.0996 25.3999 20.1996 25.3999 20.2996V39.3996C26.6999 39.2996 27.8999 39.0996 28.9999 38.6996V20.1996C29.0999 20.1996 29.0999 20.0996 28.9999 20.0996Z" fill="#5363F0"/>
<path fill-rule="evenodd" clip-rule="evenodd" d="M61.6 32.1997C62.2 32.5997 62.9 32.9997 63.8 32.9997C64.4 32.9997 64.9 32.7997 64.9 32.2997C64.9 31.7997 64.5 31.6997 63.7 31.4997C62.1 31.0997 61.5 30.3997 61.5 29.0997C61.5 27.5997 62.7 26.6997 64.2 26.6997C65.1 26.6997 65.8 26.8997 66.4 27.2997V29.1997C65.8 28.6997 65.1 28.3997 64.3 28.3997C63.7 28.3997 63.4 28.6997 63.4 28.9997C63.4 29.4997 63.8 29.6997 64.7 29.8997C66.3 30.2997 66.9 31.0997 66.9 32.3997C66.9 34.0997 65.5 34.7996 63.9 34.7996C63 34.7996 62.2 34.5997 61.7 34.1997V32.1997H61.6Z" fill="#5363F0"/>
<path fill-rule="evenodd" clip-rule="evenodd" d="M72.1 34.4997L70.6 29.5997L70 34.4997H68L69.1 26.6997H71.4L73 31.9997L74.5 26.6997H76.8L77.9 34.4997H76L75.3 29.5997L73.8 34.4997H72.1Z" fill="#5363F0"/>
<path fill-rule="evenodd" clip-rule="evenodd" d="M83.0999 28.6997L82.0999 31.4997H84.0999L83.0999 28.6997ZM81.4999 32.9997L80.9999 34.4997H78.8999L81.8999 26.6997H84.1999L87.1999 34.4997H85.0999L84.5999 32.9997H81.4999Z" fill="#5363F0"/>
<path fill-rule="evenodd" clip-rule="evenodd" d="M88.6001 26.6997H90.6001V32.7996H93.6001V34.4997H88.7001V26.6997H88.6001Z" fill="#5363F0"/>
<path fill-rule="evenodd" clip-rule="evenodd" d="M95 26.6997H97V32.7996H100V34.4997H95V26.6997Z" fill="#5363F0"/>
<path fill-rule="evenodd" clip-rule="evenodd" d="M106.3 32.9996C106.5 32.9996 106.8 32.9996 106.9 32.9996C107.7 32.9996 108.3 32.7996 108.3 32.1996C108.3 31.5996 107.9 31.3996 107.2 31.3996H106.3V32.9996ZM106.3 29.7996H106.9C107.7 29.7996 108 29.4996 108 28.8996C108 28.3996 107.6 28.1996 107 28.1996C106.8 28.1996 106.4 28.1996 106.3 28.2996V29.7996ZM104.4 26.7996C105 26.6996 106.1 26.5996 106.8 26.5996C108.5 26.5996 109.9 27.1996 109.9 28.7996C109.9 29.6996 109.3 30.2996 108.5 30.4996C109.5 30.5996 110.3 31.1996 110.3 32.3996C110.3 33.8996 109.2 34.6996 106.5 34.6996C105.8 34.6996 104.9 34.5996 104.4 34.4996V26.7996Z" fill="#5363F0"/>
<path fill-rule="evenodd" clip-rule="evenodd" d="M111.8 26.6997H113.8V31.2997C113.8 32.5997 114.3 32.9997 115.2 32.9997C115.7 32.9997 116.1 32.8997 116.4 32.8997V26.6997H118.4V34.1997C117.7 34.3997 116.2 34.5997 115.2 34.5997C113.4 34.5997 111.8 33.8997 111.8 31.6997V26.6997Z" fill="#5363F0"/>
<path fill-rule="evenodd" clip-rule="evenodd" d="M120.1 32.1997C120.7 32.5997 121.4 32.9997 122.3 32.9997C122.9 32.9997 123.4 32.7997 123.4 32.2997C123.4 31.7997 123 31.6997 122.2 31.4997C120.6 31.0997 120 30.3997 120 29.0997C120 27.5997 121.2 26.6997 122.7 26.6997C123.6 26.6997 124.3 26.8997 124.9 27.2997V29.1997C124.3 28.6997 123.6 28.3997 122.8 28.3997C122.2 28.3997 121.9 28.6997 121.9 28.9997C121.9 29.4997 122.3 29.6997 123.2 29.8997C124.8 30.2997 125.4 31.0997 125.4 32.3997C125.4 34.0997 124 34.7996 122.4 34.7996C121.5 34.7996 120.7 34.5997 120.2 34.1997V32.1997H120.1Z" fill="#5363F0"/>
<path fill-rule="evenodd" clip-rule="evenodd" d="M126.9 34.4997H128.9V26.6997H126.9V34.4997Z" fill="#5363F0"/>
<path fill-rule="evenodd" clip-rule="evenodd" d="M136 31.4997V26.6997H137.9V34.4997H136L132.7 29.7997V34.4997H130.8V26.6997H132.8L136 31.4997Z" fill="#5363F0"/>
<path fill-rule="evenodd" clip-rule="evenodd" d="M145.2 32.7996V34.4997H140V26.6997H145.2V28.3997H142V29.6997H144.9V31.3997H142V32.6997H145.2V32.7996Z" fill="#5363F0"/>
<path fill-rule="evenodd" clip-rule="evenodd" d="M146.9 32.1997C147.5 32.5997 148.2 32.9997 149.1 32.9997C149.7 32.9997 150.2 32.7997 150.2 32.2997C150.2 31.7997 149.8 31.6997 149 31.4997C147.4 31.0997 146.8 30.3997 146.8 29.0997C146.8 27.5997 148 26.6997 149.5 26.6997C150.4 26.6997 151.1 26.8997 151.7 27.2997V29.1997C151.1 28.6997 150.4 28.3997 149.6 28.3997C149 28.3997 148.7 28.6997 148.7 28.9997C148.7 29.4997 149.1 29.6997 150 29.8997C151.6 30.2997 152.2 31.0997 152.2 32.3997C152.2 34.0997 150.8 34.7996 149.2 34.7996C148.3 34.7996 147.5 34.5997 147 34.1997V32.1997H146.9Z" fill="#5363F0"/>
<path fill-rule="evenodd" clip-rule="evenodd" d="M153.4 32.1997C154 32.5997 154.7 32.9997 155.6 32.9997C156.2 32.9997 156.7 32.7997 156.7 32.2997C156.7 31.7997 156.3 31.6997 155.5 31.4997C153.9 31.0997 153.3 30.3997 153.3 29.0997C153.3 27.5997 154.5 26.6997 156 26.6997C156.9 26.6997 157.6 26.8997 158.2 27.2997V29.1997C157.6 28.6997 156.9 28.3997 156.1 28.3997C155.5 28.3997 155.2 28.6997 155.2 28.9997C155.2 29.4997 155.6 29.6997 156.5 29.8997C158.1 30.2997 158.7 31.0997 158.7 32.3997C158.7 34.0997 157.3 34.7996 155.7 34.7996C154.8 34.7996 154 34.5997 153.5 34.1997V32.1997H153.4Z" fill="#5363F0"/>
<path fill-rule="evenodd" clip-rule="evenodd" d="M65.3999 15.1C64.9999 14.7 64.4999 14.5 63.7999 14.5C62.7999 14.5 62.2999 15.2 62.2999 16.2C62.2999 17.2 62.8999 17.9 63.8999 17.9C64.5999 17.9 64.9999 17.7 65.5999 17.3V18.8C64.9999 19.1 64.4999 19.2 63.8999 19.2C61.9999 19.2 60.8999 17.9 60.8999 16.1C60.8999 14.3 62.0999 13 63.8999 13C64.4999 13 64.9999 13.1 65.4999 13.4V15.1H65.3999Z" fill="#5363F0"/>
<path fill-rule="evenodd" clip-rule="evenodd" d="M69.6 14.3996C68.7 14.3996 68 15.0996 68 16.0996C68 17.0996 68.7 17.7996 69.6 17.7996C70.5 17.7996 71.2 17.0996 71.2 16.0996C71.2 15.0996 70.5 14.3996 69.6 14.3996ZM69.6 13.0996C71.3 13.0996 72.7 14.3996 72.7 16.1996C72.7 17.9996 71.3 19.2996 69.6 19.2996C67.9 19.2996 66.5 17.9996 66.5 16.1996C66.5 14.3996 67.9 13.0996 69.6 13.0996Z" fill="#5363F0"/>
<path fill-rule="evenodd" clip-rule="evenodd" d="M75.3001 19.0997L73.1001 13.1997H74.7001L76.2001 17.5997L77.7001 13.1997H79.3001L77.1001 19.0997H75.3001Z" fill="#5363F0"/>
<path fill-rule="evenodd" clip-rule="evenodd" d="M84.2002 17.7997V19.0997H80.2002V13.1997H84.1002V14.4997H81.7002V15.4997H84.0002V16.7997H81.8002V17.7997H84.2002Z" fill="#5363F0"/>
<path fill-rule="evenodd" clip-rule="evenodd" d="M87.1001 15.9996H87.5001C88.1001 15.9996 88.6001 15.7996 88.6001 15.1996C88.6001 14.5996 88.1001 14.3996 87.6001 14.3996C87.5001 14.3996 87.3001 14.3996 87.2001 14.3996V15.9996H87.1001ZM87.1001 19.0996H85.6001V13.1996C86.1001 13.0996 86.9001 13.0996 87.5001 13.0996C89.0001 13.0996 90.0001 13.6996 90.0001 15.1996C90.0001 15.9996 89.5001 16.5996 88.9001 16.9996L90.5001 19.1996H88.8001L87.5001 17.2996H87.1001V19.0996Z" fill="#5363F0"/>
<path fill-rule="evenodd" clip-rule="evenodd" d="M95.5 17.7997V19.0997H91.5V13.1997H95.4V14.4997H93V15.4997H95.2V16.7997H93V17.7997H95.5Z" fill="#5363F0"/>
<path fill-rule="evenodd" clip-rule="evenodd" d="M98.3999 17.8996C98.5999 17.8996 98.7999 17.8996 98.9999 17.8996C99.9999 17.8996 100.7 17.2996 100.7 16.0996C100.7 14.9996 99.9999 14.4996 98.9999 14.4996C98.7999 14.4996 98.5999 14.4996 98.3999 14.4996V17.8996ZM96.8999 13.1996C97.2999 13.0996 98.1999 13.0996 98.8999 13.0996C100.9 13.0996 102.2 14.0996 102.2 16.0996C102.2 18.2996 100.8 19.1996 98.7999 19.1996C98.0999 19.1996 97.2999 19.1996 96.8999 19.0996V13.1996Z" fill="#5363F0"/>
<path fill-rule="evenodd" clip-rule="evenodd" d="M110.1 15.1C109.7 14.7 109.2 14.5 108.5 14.5C107.5 14.5 107 15.2 107 16.2C107 17.2 107.6 17.9 108.6 17.9C109.3 17.9 109.7 17.7 110.3 17.3V18.8C109.7 19.1 109.2 19.2 108.6 19.2C106.7 19.2 105.6 17.9 105.6 16.1C105.6 14.3 106.8 13 108.6 13C109.2 13 109.7 13.1 110.2 13.4V15.1H110.1Z" fill="#5363F0"/>
<path fill-rule="evenodd" clip-rule="evenodd" d="M114.1 14.6997L113.3 16.7997H114.8L114.1 14.6997ZM112.9 17.9997L112.5 19.0997H110.9L113.2 13.1997H115L117.3 19.0997H115.7L115.3 17.9997H112.9Z" fill="#5363F0"/>
<path fill-rule="evenodd" clip-rule="evenodd" d="M118.3 13.1997H119.8V17.7997H122V19.0997H118.3V13.1997Z" fill="#5363F0"/>
<path fill-rule="evenodd" clip-rule="evenodd" d="M123.1 19.0997H124.6V13.1997H123.1V19.0997Z" fill="#5363F0"/>
<path fill-rule="evenodd" clip-rule="evenodd" d="M126.2 19.0997V13.1997H129.8V14.4997H127.7V15.7997H129.6V17.0997H127.7V19.1997H126.2V19.0997Z" fill="#5363F0"/>
<path fill-rule="evenodd" clip-rule="evenodd" d="M133.8 14.3996C132.9 14.3996 132.2 15.0996 132.2 16.0996C132.2 17.0996 132.9 17.7996 133.8 17.7996C134.7 17.7996 135.4 17.0996 135.4 16.0996C135.4 15.0996 134.7 14.3996 133.8 14.3996ZM133.8 13.0996C135.5 13.0996 136.9 14.3996 136.9 16.1996C136.9 17.9996 135.5 19.2996 133.8 19.2996C132.1 19.2996 130.7 17.9996 130.7 16.1996C130.7 14.3996 132.1 13.0996 133.8 13.0996Z" fill="#5363F0"/>
<path fill-rule="evenodd" clip-rule="evenodd" d="M139.6 15.9996H140C140.6 15.9996 141.1 15.7996 141.1 15.1996C141.1 14.5996 140.6 14.3996 140.1 14.3996C140 14.3996 139.8 14.3996 139.7 14.3996V15.9996H139.6ZM139.6 19.0996H138.1V13.1996C138.6 13.0996 139.4 13.0996 140 13.0996C141.5 13.0996 142.5 13.6996 142.5 15.1996C142.5 15.9996 142 16.5996 141.4 16.9996L143 19.1996H141.3L140 17.2996H139.6V19.0996Z" fill="#5363F0"/>
<path fill-rule="evenodd" clip-rule="evenodd" d="M147.9 16.7997V13.1997H149.3V19.0997H148L145.5 15.4997V19.0997H144V13.1997H145.5L147.9 16.7997Z" fill="#5363F0"/>
<path fill-rule="evenodd" clip-rule="evenodd" d="M150.9 19.0997H152.4V13.1997H150.9V19.0997Z" fill="#5363F0"/>
<path fill-rule="evenodd" clip-rule="evenodd" d="M156.5 14.6997L155.7 16.7997H157.2L156.5 14.6997ZM155.3 17.9997L154.9 19.0997H153.3L155.6 13.1997H157.4L159.7 19.0997H158.1L157.7 17.9997H155.3Z" fill="#5363F0"/>
<path fill-rule="evenodd" clip-rule="evenodd" d="M60.5 22.9997H160V22.6997H60.5V22.9997Z" fill="#5363F0"/>
</g>
</g>
<defs>
<clipPath id="clip0_12434_163301">
<rect width="160" height="44" fill="white"/>
</clipPath>
</defs>
</svg>
