<svg width="16" height="16" viewBox="0 0 16 16" fill="none" xmlns="http://www.w3.org/2000/svg">
<path d="M9.6677 1.53115L15.3001 12.8002C15.9202 14.0408 15.0182 15.5 13.6324 15.5H2.36764C0.981817 15.5 0.0798465 14.0408 0.699934 12.8002L6.3323 1.53115C7.01947 0.156284 8.98053 0.156284 9.6677 1.53115Z" stroke="#3B3A39"/>
<path d="M8.67227 10.5477H7.33789L7.05898 5.20471H8.95117L8.67227 10.5477ZM7.03711 12.418C7.03711 12.1117 7.11914 11.8802 7.2832 11.7235C7.44727 11.5667 7.68607 11.4883 7.99961 11.4883C8.30221 11.4883 8.53555 11.5685 8.69961 11.7289C8.86732 11.8893 8.95117 12.119 8.95117 12.418C8.95117 12.706 8.86732 12.9339 8.69961 13.1016C8.5319 13.2656 8.29857 13.3477 7.99961 13.3477C7.69336 13.3477 7.45638 13.2675 7.28867 13.1071C7.12096 12.943 7.03711 12.7133 7.03711 12.418Z" fill="#3B3A39"/>
</svg>
