<svg width="16" height="16" viewBox="0 0 16 16" fill="none" xmlns="http://www.w3.org/2000/svg">
<path d="M9.6677 1.53115L15.3001 12.8002C15.9202 14.0408 15.0182 15.5 13.6324 15.5H2.36764C0.981817 15.5 0.0798465 14.0408 0.699934 12.8002L6.3323 1.53115C7.01947 0.156284 8.98053 0.156284 9.6677 1.53115Z" fill="#FFD600" stroke="#3B3A39"/>
<path d="M8.67275 10.5476H7.33838L7.05947 5.20459H8.95166L8.67275 10.5476ZM7.0376 12.4179C7.0376 12.1116 7.11963 11.8801 7.28369 11.7233C7.44775 11.5666 7.68656 11.4882 8.0001 11.4882C8.3027 11.4882 8.53604 11.5684 8.7001 11.7288C8.86781 11.8892 8.95166 12.1189 8.95166 12.4179C8.95166 12.7059 8.86781 12.9338 8.7001 13.1015C8.53239 13.2655 8.29906 13.3476 8.0001 13.3476C7.69385 13.3476 7.45687 13.2674 7.28916 13.1069C7.12145 12.9429 7.0376 12.7132 7.0376 12.4179Z" fill="#3B3A39"/>
</svg>
